<?xml version="1.0" encoding="utf-8"?>
<!-- Generator: Adobe Illustrator 25.4.1, SVG Export Plug-In . SVG Version: 6.00 Build 0)  -->
<svg version="1.1" id="Layer_1" xmlns="http://www.w3.org/2000/svg" xmlns:xlink="http://www.w3.org/1999/xlink" x="0px" y="0px"
	 viewBox="416.51062 1025.33325 250 144.52483" style="enable-background:new 416.51062 1025.33325 250 144.52483;"
	 xml:space="preserve">
<style type="text/css">
	.st0{fill:none;}
	.st1{fill:#191721;}
	.st2{fill:#FF8A38;}
	.st3{fill:#6CC142;}
	.st4{fill:#577BF2;}
	.st5{fill:#DE3C3C;}
	.st6{fill:#FFEA4B;}
	.st7{fill:#FFFFFF;}
	.st8{fill:#FF941F;}
	.st9{fill:#E6DA31;}
	.st10{fill:#365FE3;}
	.st11{fill:#FA3215;}
	.st12{fill:#EFEFEF;}
	.st13{fill:#17D467;}
	.st14{fill:#D00000;}
	.st15{fill:#9A1107;}
	.st16{fill:#D63528;}
	.st17{fill:#B41204;}
	.st18{fill:#F4EFF2;}
	.st19{fill:#C7ADBE;}
	.st20{fill:#FF8800;}
	.st21{fill:#FBAF62;}
	.st22{fill:#BF6600;}
	.st23{fill:#FFE9EC;}
	.st24{fill:#5483D5;}
	.st25{fill:#8CC8E4;}
	.st26{fill:#255473;}
	.st27{fill:#BD300F;}
	.st28{fill:#DC7257;}
	.st29{fill:#9C301C;}
	.st30{fill:#541B10;}
	.st31{fill:#75242B;}
	.st32{fill:#581B20;}
	.st33{fill:#BD3C23;}
	.st34{fill:none;stroke:#FFFFFF;stroke-miterlimit:10;}
	.st35{fill:#606060;}
	.st36{fill:none;stroke:#000000;stroke-width:3;stroke-linejoin:round;stroke-miterlimit:10;}
	.st37{fill:none;stroke:#000000;stroke-width:1.5;stroke-linejoin:round;stroke-miterlimit:10;}
	.st38{opacity:0.2;fill:none;stroke:#000000;stroke-width:3;stroke-linejoin:round;stroke-miterlimit:10;}
	.st39{opacity:0.2;fill:none;stroke:#000000;stroke-width:1.5;stroke-linejoin:round;stroke-miterlimit:10;}
	.st40{fill:url(#SVGID_1_);}
	.st41{fill:#252627;}
	.st42{fill:#5F1E12;}
	.st43{fill:none;stroke:#5F1E12;stroke-width:2;stroke-linejoin:round;stroke-miterlimit:10;}
	.st44{fill:none;stroke:#5F1E12;stroke-linejoin:round;stroke-miterlimit:10;}
	.st45{fill:none;stroke:#5F1E12;stroke-width:2;stroke-linecap:round;stroke-linejoin:round;stroke-miterlimit:10;}
	.st46{fill:none;stroke:#9A1107;stroke-miterlimit:10;}
	.st47{fill:none;stroke:#000000;stroke-width:7;stroke-linejoin:round;stroke-miterlimit:10;}
	.st48{fill:#23EB78;}
	.st49{fill:#FF9E32;}
	.st50{fill:#EBDF32;}
	.st51{fill:#436AEB;}
	.st52{fill:#282636;}
</style>
<pattern  x="-230" y="471.99994" width="7.53062" height="8.66035" patternUnits="userSpaceOnUse" id="Unnamed_Pattern" viewBox="0.077 -8.66035 7.53062 8.66035" style="overflow:visible;">
	<g>
		<rect x="0.077" y="-8.66035" class="st0" width="7.53062" height="8.66035"/>
		<g>
			<path d="M2.78548-0.51807C2.31339-1.19093,1.88339-1.89332,1.49883-2.61977C0.77451-3.98803,0.20384-5.58612,0.66767-7.06316
				c0.17642-0.5618,0.60261-1.13836,1.19145-1.13961c0.4908-0.00104,0.88541,0.39736,1.16566,0.80027
				c0.59469,0.855,0.95698,1.87001,1.03807,2.90833c0.26672-0.61835,0.32128-1.31426,0.60807-1.92357
				c0.28678-0.6093,0.95097-1.14271,1.59222-0.93705c0.60875,0.19524,0.85422,0.93503,0.85103,1.57432
				C7.10824-4.59197,6.54754-3.45245,5.74658-2.57438S3.91803-1.055,2.85558-0.52233"/>
			<g>
				<path d="M3.10928-0.70734C2.49488-1.60328,1.92556-2.54666,1.488-3.54283C1.07944-4.47298,0.77098-5.54909,0.98271-6.5673
					c0.07813-0.37574,0.2222-0.81501,0.54523-1.05556C1.92167-7.91604,2.30211-7.57041,2.54269-7.2524
					c0.59156,0.78194,0.91342,1.79058,1.00258,2.75824C3.60032-3.8966,4.34205-3.81118,4.56195-4.35657
					c0.30584-0.75853,0.30822-2.14352,1.19901-2.50368C6.68737-7.2348,6.65933-5.64323,6.5615-5.15637
					C6.15082-3.11274,4.33427-1.85163,2.58745-0.98105C1.97692-0.67678,2.51461,0.24908,3.12371-0.06361
					C5.32682-1.19465,7.81283-3.2128,7.59415-5.98493c-0.08513-1.07916-0.8805-2.21165-2.09697-1.83212
					c-1.42932,0.44594-1.4595,2.02768-1.93342,3.18529c0.33889,0.04587,0.67779,0.09173,1.01668,0.13759
					c-0.1093-1.2598-0.5675-2.57001-1.43006-3.51936C2.76537-8.43727,2.22256-8.7459,1.63496-8.63905
					C1.1073-8.54311,0.69416-8.13923,0.45272-7.6765C-0.1348-6.55055,0.04603-5.13825,0.45419-3.9867
					c0.4643,1.30995,1.20888,2.5277,2.00749,3.6579C2.73714,0.06103,3.38424-0.30638,3.10928-0.70734L3.10928-0.70734z"/>
			</g>
		</g>
	</g>
</pattern>
<path id="path-01_00000038387259920655648170000015799755407800870584_" d="M476.53149,1120.51147
	c0.01141,11.98315,0.19427,23.98547-0.078,35.96582c-0.00684,0.29883-0.45703,0.29834-0.46375,0
	c-0.2724-11.98035-0.08954-23.98267-0.07806-35.96582C475.91205,1120.11206,476.53107,1120.11279,476.53149,1120.51147z
	 M475.90948,1115.64941c-0.00067,0.40161,0.62482,0.40234,0.62427,0c-0.02722-17.67139-0.01953-35.34277-0.02264-53.01404
	c-0.00092-4.94043,0.01477-9.88098-0.04205-14.82117c-0.00366-0.31836-0.49133-0.31885-0.49493,0
	c-0.20331,17.66772-0.04559,35.34521-0.04834,53.01404C475.92499,1105.76855,475.91699,1110.70898,475.90948,1115.64941z
	 M442.38696,1057.70996c-0.00427-0.29541-0.45502-0.2959-0.45929,0c-0.21722,14.91211-0.09021,29.83423-0.0921,44.74756
	c-0.00049,4.21436-0.00104,8.42871-0.00153,12.64307c-0.00006,0.41602,0.64661,0.41675,0.64661,0
	c-0.00189-14.91577,0.00745-29.83179-0.02356-44.74756C442.4483,1066.13843,442.44836,1061.92407,442.38696,1057.70996z
	 M441.89392,1144.77734c0.00317-5.65283,0.0022-11.30566-0.02692-16.95825c-0.01251-2.43591-0.02509-4.87183-0.0376-7.30762
	c-0.00159-0.31274-0.48438-0.31323-0.48602,0c-0.05408,10.50439-0.0672,21.0083-0.05853,31.51294
	c0.0011,1.34033-0.0022,2.68054,0.00677,4.02075c0.00726,1.0896-0.04419,2.20276,0.07404,3.28662
	c0.03094,0.28345,0.41052,0.28394,0.44141,0c0.22815-2.08984,0.07843-4.27039,0.08014-6.37036
	C441.88947,1150.23328,441.8924,1147.50537,441.89392,1144.77734z M461.47015,1113.67505
	c-0.00323-4.81567-0.00635-9.63135-0.00958-14.44702c-0.00177-2.7373,0.04193-5.47925-0.0567-8.21497
	c-0.01001-0.2782-0.42249-0.27869-0.4325,0c-0.17328,4.8075-0.05768,9.6366-0.06085,14.44702
	c-0.00317,4.81567-0.00635,9.63147-0.00952,14.44714c-0.00085,1.3219-0.00177,2.6438-0.00256,3.96582
	c-0.00098,1.40698-0.06964,2.84863,0.08185,4.24902c0.02875,0.26624,0.38586,0.26685,0.41467,0
	c0.25659-2.37256,0.08154-4.83887,0.0799-7.22351C461.47327,1118.49072,461.47174,1116.08301,461.47015,1113.67505z
	 M442.11859,1054.09424c0.29688-7.98096,0.17084-15.99219,0.06689-23.97827c-0.0036-0.28101-0.43329-0.28149-0.43701,0
	c-0.10394,7.98608-0.22992,15.99731,0.06689,23.97827C441.82263,1054.28931,442.11139,1054.28955,442.11859,1054.09424z
	 M476.59692,1030.49658c-0.02496-0.23755-0.34509-0.23804-0.37012,0c-0.2431,2.31567-0.0871,4.7146-0.08783,7.04126
	c-0.00079,2.34082-0.08942,4.70483,0.06775,7.04126c0.01782,0.26367,0.39252,0.26416,0.41028,0
	c0.15717-2.33643,0.06854-4.70044,0.06775-7.04126C476.68402,1035.21118,476.83997,1032.81213,476.59692,1030.49658z
	 M455.80591,1116.11621c-0.83563-0.21008-1.82507-0.07007-2.6839-0.06921c-0.95117,0.00098-1.90247,0.00159-2.8537,0.00403
	c-0.95111,0.00244-1.90259-0.0033-2.85364,0.00891c-0.85309,0.01086-1.83435-0.09338-2.65906,0.14661
	c-0.08899,0.02576-0.08911,0.15454,0,0.18042c0.82709,0.24072,1.80353,0.1355,2.65906,0.14648
	c0.95105,0.01221,1.90253,0.00659,2.85364,0.00903c0.95123,0.00244,1.90253,0.00293,2.8537,0.00391
	c0.85608,0.00098,1.85107,0.14026,2.6839-0.06909C455.98431,1116.4325,455.98444,1116.16089,455.80591,1116.11621z
	 M461.47595,1145.29858c-0.0011-2.26025,0.00348-4.52026-0.00537-6.7804c-0.00439-1.13-0.00879-2.26013-0.01318-3.39014
	c-0.00439-1.13245,0.08923-2.3208-0.08063-3.44226c-0.02832-0.18738-0.34998-0.1875-0.3783,0
	c-0.16315,1.07654-0.07587,2.21411-0.08008,3.30103c-0.00439,1.13-0.00879,2.26001-0.01324,3.39014
	c-0.00891,2.30713-0.00482,4.61426-0.00586,6.92163c-0.0011,2.26001-0.00214,4.52002-0.00323,6.78015
	c-0.00116,2.35095-0.08002,4.71594,0.06641,7.06287c0.01801,0.28943,0.43225,0.29004,0.45032,0
	c0.14349-2.30029,0.06763-4.61755,0.06647-6.92163C461.47815,1149.91284,461.47705,1147.60571,461.47595,1145.29858z
	 M461.67487,1065.02625c-0.02039-7.45691,0.02826-14.91418-0.01526-22.37097c-0.01196-2.04236-0.02386-4.08472-0.03577-6.1272
	c-0.01245-2.13403,0.0387-4.28247-0.11884-6.41211c-0.01208-0.16321-0.24207-0.16357-0.25421,0
	c-0.27228,3.68262-0.12469,7.4231-0.14624,11.11438c-0.02185,3.75232-0.01764,7.50439-0.01666,11.25671
	c0.00195,7.45703-0.01318,14.91406-0.01318,22.37109c0,4.17261-0.08887,8.37158,0.13818,12.53906
	c0.0116,0.21216,0.31842,0.21265,0.33002,0c0.20135-3.69421,0.13818-7.41528,0.13818-11.11414
	C461.68109,1072.53076,461.685,1068.77856,461.67487,1065.02625z M646.46228,1138.11426
	c-0.0025,0.62549-0.00153,1.25098-0.00671,1.87646c-0.00439,0.52881-0.00854,1.05737-0.01385,1.58569
	c2.28693-2.37671,4.59357-4.73413,6.83496-7.15186c0.00409-1.22498,0.00781-2.44995,0.01178-3.67505
	C651.00586,1133.19763,648.72247,1135.64502,646.46228,1138.11426z M494.17603,1116.44678
	c-1.23291-0.19153-2.50018-0.11377-3.74414-0.11255c-1.32849,0.00159-2.65704,0.00427-3.9856,0.0061
	c-2.65314,0.00391-5.32019-0.03931-7.97119,0.07397c-0.24371,0.01025-0.24414,0.36841,0,0.37891
	c2.65106,0.11328,5.31799,0.07007,7.97119,0.07397c1.32855,0.00171,2.6571,0.00439,3.9856,0.00598
	c1.24323,0.00134,2.5119,0.07898,3.74414-0.11243C494.33142,1116.73657,494.33148,1116.47095,494.17603,1116.44678z
	 M641.43225,1146.94604c0.85748-0.96375,1.73328-1.91016,2.61523-2.85059c-0.04004-1.08911-0.05627-2.17944-0.05646-3.26941
	c-2.27069,2.48621-4.45068,5.05908-6.67957,7.57947c-0.03949,0.24719-0.08337,0.49438-0.13507,0.74548
	c0.94696-0.13757,1.89252-0.28406,2.83887-0.42566C640.36755,1148.05396,641.18488,1147.23047,641.43225,1146.94604z
	 M643.88617,1145.92578c-0.80933,0.71851-1.43604,1.70911-2.16956,2.54443c0.88916-0.13452,1.77905-0.2644,2.66803-0.3999
	c0.00006-0.00012,0.00006-0.00012,0.00012-0.00024c-0.12097-0.79736-0.20172-1.6001-0.26007-2.40527
	C644.04565,1145.7522,643.96466,1145.83813,643.88617,1145.92578z M646.40973,1143.2428
	c-0.02136,0.84387-0.05371,1.68665-0.11676,2.52673c2.18958-2.521,4.55951-4.92407,6.93799-7.31775
	c0.0199-0.74768,0.03754-1.49219,0.03998-2.22766c0-0.0083,0.00006-0.0166,0.00006-0.0249
	C651.07782,1138.62317,648.69495,1140.90149,646.40973,1143.2428z M637.65656,1047.42017
	c-21.02081-2.7738-42.02069-5.70959-63.00885-8.7196c-8.19824-1.17566-16.38928-2.39343-24.57184-3.67151
	c-0.01056,0.12756-0.06842,0.25244-0.20117,0.34302c-4.03601,2.75098-7.89618,5.71753-11.70471,8.75562
	c0.01392,1.63831,0.02856,3.27661,0.04053,4.91479c2.14062-1.92676,4.30774-3.8241,6.47913-5.71436
	c0.10504-1.28577,0.28723-2.55469,0.62537-3.77832c0.09851-0.3562,0.62439-0.35657,0.72235,0
	c0.1983,0.72168,0.33557,1.46362,0.44934,2.21265c0.18964-0.16504,0.37958-0.33057,0.56909-0.49573
	c0.43292-0.29895,3.09985-3.0824,2.99591-1.57336c-1.13177,1.02368-2.27856,2.03687-3.42358,3.05127
	c0.36346,3.29346,0.11969,6.75806,0.15015,9.98901c0.04102,4.36133,0.05511,8.72278,0.07214,13.08423
	c0.06116,15.73901,0.05328,31.47803,0.06366,47.21704c0.01038,15.74988-0.12695,31.4436,1.13055,47.15674
	c2.1344-0.2627,4.26874-0.52661,6.40381-0.78418c-0.43701-4.16785-0.40466-8.34888-0.43866-12.54443
	c-0.03467-4.26501-0.0567-8.52905-0.05396-12.79431c0.01001-15.66565,0.01337-31.33142,0.04462-46.99695
	c0.01562-7.82031,0.03119-15.64062,0.04681-23.46094c0.0155-7.73596-0.31647-15.57349,0.31512-23.28796
	c0.09125-1.11365,1.63916-1.11157,1.73016,0c0.70667,8.63147,0.30341,17.41797,0.32068,26.07385
	c0.03131,15.66577,0.06268,31.33154,0.07275,46.99719c0.00494,7.82031,0.00995,15.64062,0.01495,23.46082
	c0.0047,7.40479,0.31305,14.98633-0.46777,22.35864c0.28784-0.03467,0.57538-0.07129,0.86316-0.10571
	c2.15167-0.25806,4.30469-0.50903,6.45709-0.76331c-0.25519-1.77551-0.23431-3.57495-0.23938-5.37256
	c-0.00629-2.22266-0.01074-4.44531-0.01886-6.66785c-0.01569-4.27466-0.0412-8.54907-0.06201-12.82349
	c-0.07452-15.31738-0.05518-30.6355-0.07605-45.95288c-0.0105-7.7417-0.0022-15.4834-0.00018-23.2251
	c0.00201-7.65332-0.41479-15.45874,0.44977-23.07446c0.11981-1.05518,1.52142-1.05298,1.64099,0
	c0.50165,4.41943,0.44604,8.87842,0.4472,13.32031c0.0011,4.27515,0.00226,8.55042,0.00336,12.82568
	c0.00397,15.31824-0.01526,30.63647-0.03607,45.95483c-0.01056,7.74097-0.01831,15.48169-0.05591,23.22253
	c-0.01855,3.80701-0.04095,7.61414-0.05176,11.42102c-0.0094,3.32251,0.28265,6.8418-0.20294,10.15942
	c2.45093-0.28857,4.90173-0.5791,7.35327-0.86523c-0.46106-3.86169-0.37561-7.7417-0.40326-11.6333
	c-0.02948-4.13281-0.05566-8.26562-0.07166-12.39844c-0.05841-15.15808-0.07996-30.3158-0.09302-45.47388
	c-0.00647-7.62158-0.00726-15.24268,0.02631-22.86426c0.03308-7.50464-0.09045-15.02271,0.37183-22.51526
	c0.07092-1.14856,1.71289-1.14648,1.78363,0c0.51996,8.42664,0.34711,16.89478,0.38434,25.33521
	c0.06677,15.15796,0.005,30.31689-0.00806,45.47498c-0.00647,7.62085-0.05267,15.24194-0.08203,22.86292
	c-0.01453,3.75598-0.04602,7.51172-0.07275,11.26758c-0.02338,3.28101-0.0152,6.5249-0.38629,9.77551
	c2.48199-0.28943,4.96393-0.5791,7.44604-0.86853c-0.44446-3.77661-0.38245-7.58191-0.41565-11.38538
	c-0.03577-4.09888-0.03418-8.19751-0.03522-12.29639c-0.00385-14.86523-0.00763-29.73047-0.01147-44.59546
	c-0.00189-7.4895-0.00885-14.97864,0.02283-22.46802c0.03101-7.31995-0.099-14.6792,0.43677-21.98169
	c0.07837-1.06787,1.58057-1.06592,1.65881,0c0.6076,8.28125,0.41406,16.6377,0.44922,24.93823
	c0.06293,14.86694,0.00769,29.73499,0.00385,44.60205c-0.00189,7.48657-0.00385,14.97327-0.0058,22.45984
	c-0.00085,3.64441-0.01648,7.28796-0.04828,10.93213c-0.02808,3.21545-0.02148,6.41003-0.37787,9.599
	c2.46246-0.28748,4.92426-0.57983,7.38641-0.87012c-0.42151-3.94067-0.37732-7.92847-0.45496-11.89062
	c-0.07819-3.98901-0.06744-7.97852-0.07513-11.96838c-0.02777-14.24829-0.03424-28.49597-0.00653-42.74426
	c0.0141-7.21924,0.03845-14.43799,0.08838-21.6571c0.04987-7.21497-0.00964-14.453,0.42615-21.6571
	c0.06122-1.01074,1.50861-1.00903,1.56964,0c0.49304,8.15002,0.38947,16.34448,0.44586,24.50684
	c0.09857,14.24707,0.12653,28.49683,0.09882,42.74414c-0.01404,7.21899-0.02808,14.43811-0.04211,21.6571
	c-0.00708,3.61084-0.03241,7.21838-0.10315,10.82861c-0.06543,3.3385-0.06439,6.67944-0.40332,9.9989
	c2.45581-0.29028,4.91101-0.58496,7.36615-0.88037c-0.54004-3.84583-0.3429-7.81714-0.35449-11.69116
	c-0.0116-3.89417-0.02344-7.78833-0.02686-11.6825c-0.01251-14.24695-0.02856-28.49377-0.0694-42.74084
	c-0.02051-7.12341,0.00763-14.2467,0.02783-21.37036c0.0202-7.11621-0.16217-14.27197,0.41943-21.37036
	c0.09033-1.10205,1.62213-1.1001,1.71228,0c0.65088,7.9447,0.40405,15.96973,0.4267,23.93481
	c0.04041,14.24719-0.01978,28.49365-0.03235,42.74084c-0.00623,7.12341-0.01245,14.24695-0.01874,21.37036
	c-0.00305,3.51428-0.01837,7.02856-0.02881,10.54272c-0.01001,3.33923,0.10712,6.73889-0.33246,10.05676
	c2.33887-0.28296,4.67804-0.56396,7.01587-0.854c-0.34424-3.85864-0.18225-7.76868-0.1839-11.64124
	c-0.00171-3.85754-0.00336-7.71521-0.00494-11.57275c-0.00604-13.97815,0.01282-27.95569,0.05255-41.93359
	c0.01947-6.83508,0.039-13.67004,0.05841-20.50513c0.01978-6.93811-0.16742-13.93372,0.46881-20.84924
	c0.08557-0.92981,1.35944-0.92798,1.44476,0c0.71167,7.73462,0.45386,15.5752,0.47595,23.33496
	c0.03979,13.97766,0.11768,27.95581,0.11169,41.93359c-0.00293,6.83508-0.00586,13.67004-0.00885,20.50513
	c-0.00146,3.48657-0.00293,6.97314-0.00446,10.45972c-0.0014,3.3269,0.10706,6.67114-0.16553,9.98779
	c2.32635-0.29126,4.65082-0.59497,6.97583-0.89539c-0.46716-3.51599-0.40448-7.04431-0.42395-10.59705
	c-0.02075-3.79834-0.03418-7.59644-0.04163-11.39465c-0.02655-13.48376-0.07959-26.96716-0.00098-40.45081
	c0.03937-6.7417,0.05505-13.48389,0.12354-20.22534c0.03479-3.4176,0.03204-6.83813,0.10663-10.25513
	c0.07422-3.40137,0.04437-6.87573,0.45135-10.25513c0.10492-0.87146,1.25079-0.86963,1.35553,0
	c0.46234,3.83997,0.42883,7.81396,0.46814,11.67944c0.03857,3.7981,0.08801,7.59644,0.11017,11.39453
	c0.07874,13.48413,0.16339,26.96667,0.1369,40.45093c-0.01324,6.7417-0.02655,13.4834-0.03979,20.22534
	c-0.00671,3.41833-0.02563,6.83667-0.04437,10.25513c-0.01648,3.00879-0.01379,5.9679-0.38593,8.9397
	c2.35889-0.30786,4.71631-0.62561,7.07349-0.94519c-0.03479-0.09924-0.07422-0.19446-0.08472-0.31433
	c-0.3327-3.78271-0.20734-7.59888-0.20972-11.39307c-0.00232-3.60791-0.00452-7.2157-0.00684-10.82349
	c-0.0083-13.19727-0.01135-26.39417,0.01495-39.59131c0.01312-6.55103,0.02625-13.10205,0.03931-19.6532
	c0.00665-3.32263-0.01111-6.64648,0.02307-9.96899c0.034-3.3009-0.05945-6.68982,0.3443-9.96887
	c0.13977-1.13525,1.62634-1.13281,1.76581,0c0.46063,3.74036,0.34277,7.62756,0.35034,11.39307
	c0.0072,3.60779,0.0144,7.2157,0.02167,10.82349c0.02631,13.19702,0.06891,26.39417,0.06061,39.59119
	c-0.00409,6.55115-0.0083,13.10217-0.01239,19.6532c-0.00415,6.6106,0.36438,13.34985-0.21509,19.93799
	c-0.00092,0.01038-0.00623,0.01709-0.00732,0.02734c0.91455-0.12561,1.8288-0.25354,2.74359-0.37793
	c-0.01721-0.11035-0.00916-0.22424,0.03735-0.32568c1.26331-1.60083,2.55426-3.1853,3.85284-4.76501
	c-0.00067-1.87854-0.00134-3.7572-0.00195-5.63586c-0.00122-3.59692-0.00238-7.19397-0.00354-10.79089
	c-0.00433-12.87317-0.01495-25.74646-0.00916-38.61975c0.00293-6.53125-0.00433-13.06262,0.03497-19.59387
	c0.01996-3.31287,0.03986-6.62585,0.05975-9.93884c0.01831-3.03784-0.21045-6.30737,0.53436-9.27197
	c0.16656-0.66296,1.17517-0.66235,1.34155,0c0.87622,3.48779,0.52307,7.40234,0.54456,10.97583
	c0.02167,3.59692,0.04333,7.19385,0.06494,10.79077c0.07745,12.87256,0.02045,25.74707,0.01617,38.61975
	c-0.0022,6.53125-0.00433,13.06262-0.00659,19.59387c-0.00104,3.31299-0.00214,6.62598-0.00323,9.93896
	c-0.00012,0.28076-0.00018,0.5614-0.00031,0.84216c2.13971-2.55237,4.29962-5.09119,6.47284-7.6178
	c-0.00366-1.99609-0.00818-3.99219-0.00946-5.98828c-0.008-12.78638-0.01605-25.57275-0.02405-38.35913
	c-0.00397-6.3197-0.00452-12.6394-0.00647-18.95923c-0.00189-6.26794-0.19556-12.56812,0.24603-18.82275
	c0.09406-1.33203,1.97516-1.32959,2.06897,0c0.49805,7.05396,0.2475,14.17444,0.24524,21.24341
	c-0.00391,12.78857-0.01135,25.57715-0.01935,38.36572c-0.00397,6.31714-0.00378,12.63428-0.01215,18.95142
	c-0.00031,0.22424,0.00006,0.44849-0.00006,0.67273c0.90619-1.05237,1.81378-2.10486,2.71643-3.15759
	c0.13098-0.15137,0.33203,0.0647,0.21539,0.21545c-0.97681,1.26331-1.95441,2.52551-2.93188,3.78796
	c-0.00006,1.29492-0.00153,2.58984-0.00287,3.88477c2.22687-2.38135,4.50177-4.71594,6.82422-6.99866
	c0.00317-1.02136,0.00696-2.0426,0.00977-3.06384c0.03394-12.31738,0.04169-24.63354,0.00452-36.95068
	c-0.03729-12.31567-0.3252-24.64417,0.14008-36.95068c0.03778-0.99976,1.51404-0.99805,1.55176,0
	c0.26508,7.01233,0.23993,14.0144,0.22754,21.03345c-0.02191,12.31689-0.16077,24.63342-0.12677,36.95068
	c0.01575,5.7229,0.03033,11.44604,0.04742,17.16907c0.98676-0.94519,1.98175-1.88098,2.98804-2.80371
	c0.34064-0.3075,0.80896,0.16199,0.50275,0.50281c-1.15326,1.27673-2.31732,2.54358-3.48651,3.80566
	c0.00372,1.19873,0.00793,2.39746,0.01196,3.59631c1.04675-1.17566,2.07812-2.3656,3.06873-3.59363
	c0.17328-0.1969,0.4472,0.05518,0.34314,0.26477c-0.98083,1.77258-2.14178,3.4115-3.40643,4.97229
	c0.00281,0.83252,0.00543,1.66504,0.0083,2.49756c1.33002-1.35132,2.64325-2.71191,3.90509-4.10376
	c0.21838-0.22864,0.55219,0.11194,0.34473,0.34473c-1.42169,1.59521-2.83301,3.2002-4.24634,4.80322
	c0.00012,0.03845,0.00024,0.0769,0.00037,0.11548c0.00244,0.73267,0.01923,1.47217,0.03662,2.21484
	c1.43414-1.50903,2.90582-2.97949,4.37341-4.42114c1.38519-0.38806-2.77368,4.31714-4.33954,6.19836
	c0.01184,0.94312,0.00458,1.88562-0.04553,2.82117c0.96497-1.27222,2.29736-2.35376,3.35632-3.51245
	c0.5033-0.48657,1.23517,0.25488,0.76135,0.76147c-1.21857,1.42676-2.33746,3.07031-3.80487,4.22595
	c0.05939-0.02551,0.06342-0.02063,0.01221,0.01453c-0.10535,0.13733-0.29315,0.28052-0.49097,0.36719
	c-0.00256,0.01904-0.00372,0.03833-0.00629,0.05737c1.81104-0.29907,3.62408-0.58447,5.43323-0.89612
	c0.02368-6.86707,0.00793-13.7345,0.00793-20.60168c0-24.88782,0.03442-49.77563,0.03528-74.66345
	C652.87628,1049.4364,645.26355,1048.42383,637.65656,1047.42017z M666.51062,1150.58569
	c-0.17816-0.1167-0.39185-0.19495-0.67737-0.16504c-9.03491,0.94482-18.03925,2.27063-27.03986,3.48901
	c-15.0094,2.03149-30.01019,4.12671-45.01068,6.2229c-15.20966,2.12573-30.41693,4.26855-45.62573,6.40076
	c-5.78052,0.81042-11.56091,1.62097-17.34247,2.42395c-2.09528,0.29114-4.20905,0.69312-6.31683,0.87219
	c-1.19879,0.10193-2.46484-0.09534-3.67218-0.17053c-1.69232-0.10547-3.38458-0.21094-5.0769-0.31628
	c-3.29266-0.20496-6.58527-0.41003-9.87787-0.61499c-26.59503-1.65564-53.19354-3.27625-79.80487-4.64807
	c-3.14801-0.16235-6.29535-0.33179-9.44501-0.45581c0.27679-1.88379,0.21869-3.7699,0.21948-5.67993
	c0.00098-2.3457,0.00195-4.69141,0.00287-7.03711c0.00177-4.3606,0.00354-8.72119,0.00537-13.08179
	c0.0036-8.98828,0.00818-17.97656,0.00476-26.96472c-0.0069-18.03479-0.00708-36.06958-0.05872-54.10437
	c-0.02747-9.56519,0-19.12842-0.284-28.68945c6.86304,0.59131,13.90973,0.11182,20.77783-0.03284
	c7.36743-0.15491,14.73444-0.32776,22.09961-0.57263c14.58246-0.48486,29.16254-1.05713,43.74994-1.38159
	c4.02393-0.08948,8.04822-0.16235,12.07288-0.21216c4.06195-0.05017,8.22095,0.20325,12.23657-0.47729
	c0.05499-0.00928,0.09583-0.03809,0.14447-0.05664c7.50934,1.61401,15.13068,2.63586,22.73273,3.7373
	c11.10168,1.6084,22.21259,3.1532,33.32556,4.68115c11.91492,1.63818,23.8421,3.1897,35.76605,4.76001
	c10.0451,1.32275,20.09186,2.63306,30.13501,3.96985c5.55029,0.73877,11.14862,1.7832,16.73169,2.24426
	c-0.45105,6.66577-0.14716,13.43933-0.15204,20.11035c-0.00507,7.01648-0.01019,14.03296-0.0152,21.04956
	c-0.01025,14.12817-0.00879,28.25549,0.04584,42.38354c0.01544,3.98242,0.03082,7.9646,0.0462,11.94702
	C666.22107,1143.66418,666.14758,1147.14966,666.51062,1150.58569z M436.44806,1124.59619
	c-3.58875-0.03784-7.17676,0.01709-10.73102,0.32642c-0.47357,0.04126-0.46637,0.68042,0,0.7312
	c3.56116,0.38843,7.14764,0.57373,10.73541,0.70947L436.44806,1124.59619z M436.36542,1091.38086
	c-3.56024,0.01562-7.11865,0.10791-10.64838,0.41602c-0.47345,0.04138-0.46643,0.68054,0,0.73132
	c3.53119,0.3844,7.09149,0.53259,10.65277,0.61597L436.36542,1091.38086z M436.28296,1058.17395
	c-4.07849,0.04248-8.15741,0.15002-12.20667,0.49731c-0.47339,0.04053-0.46661,0.6814,0,0.73132
	c4.04456,0.43237,8.13062,0.53357,12.21112,0.56384L436.28296,1058.17395z M436.98169,1158.07031
	c-5.18903-0.19019-10.37964-0.39343-15.565-0.60669c0.75623-7.93896,0.34485-16.03882,0.3457-24.00879
	c0.00073-8.2135-0.0675-16.42773-0.10095-24.64111c-0.06628-16.28369-0.16809-32.56519-0.12457-48.84912
	c0.02386-8.96472,0.3407-18.00708-0.26587-26.95605c3.31696,0.0033,6.63361-0.00317,9.95062-0.021
	c1.66626-0.00903,3.33246-0.02271,4.9986-0.0354l-0.00287-1.14941c-0.85352,0.01416-1.70703,0.0271-2.56061,0.04419
	c-2.80969,0.05664-5.62012,0.10071-8.42938,0.17554c-1.28363,0.0343-2.78204-0.13904-4.04724,0.10791
	c-0.05475,0.01074-0.1192,0.0033-0.17542,0.00488c-0.45056,0.01196-0.53491,0.56165-0.26105,0.78052
	c-0.54486,7.9762-0.30066,16.02417-0.2793,24.01489c0.02197,8.21387,0.02661,16.42725,0.01697,24.64111
	c-0.01941,16.28296-0.15186,32.56616-0.2243,48.84912c-0.02039,4.58447-0.00696,9.16895-0.00458,13.75342
	c0.00226,4.56543-0.08459,9.0918,0.36877,13.63892c0.00482,0.04797,0.03662,0.06946,0.05206,0.10803
	c0.00568,0.01794,0.01611,0.03333,0.02429,0.05042c0.03491,0.06128,0.06891,0.11206,0.12415,0.14355
	c0.04114,0.0271,0.08954,0.04529,0.14581,0.05396c0.01666,0.00183,0.02979,0.01074,0.04651,0.01025
	c5.30963,0.31079,10.61896,0.63818,15.92877,0.96265L436.98169,1158.07031z M423.29639,1147.92603
	c0.33081-14.27051-0.06439-28.55725-0.03967-42.83276c-0.00531-4.03809-0.04437-8.07507-0.08704-12.11292
	c-0.00269-0.25476-0.39337-0.25525-0.39606,0c-0.11639,14.27747-0.10614,28.55481-0.23254,42.8324
	C422.74719,1136.9021,421.88141,1150.12109,423.29639,1147.92603z M423.54413,1089.86279
	c0.16876-3.36731,0.07166-6.76074,0.05756-10.13159c-0.0141-3.37732-0.0282-6.75464-0.0423-10.13184
	c-0.0011-0.25488-0.39502-0.25537-0.39612,0c0.03973,6.7522-0.21228,13.51587,0.01514,20.26355
	C423.19031,1090.0979,423.53235,1090.09839,423.54413,1089.86279z M501.25317,1059.35474
	c1.57013-0.02356,3.14038-0.04529,4.71051-0.07397c2.34338-0.04285,4.68677-0.08826,7.02979-0.14844
	c0.76605-0.01953,1.53357-0.0332,2.29706-0.10327c0.32416-0.02979,0.63342-0.06909,0.94922-0.14844
	c0.21722-0.05469,0.93103-0.17236,0.38745-0.1377c0.90051-0.05737,0.90698-1.46692,0-1.40918
	c0.17725-0.01123-0.24957-0.05078-0.3504-0.06665c-0.28027-0.04431-0.55164-0.08081-0.83545-0.09546
	c-0.6416-0.03296-1.29047,0.00415-1.93195,0.02209c-1.94647,0.05444-3.89288,0.10596-5.83966,0.15027
	c-2.13776,0.04883-4.2757,0.08606-6.41351,0.12305L501.25317,1059.35474z M501.19788,1093.75415
	c1.6582,0.0105,3.31647,0.02271,4.97473,0.02686c2.29272,0.00574,4.58563,0.00879,6.87836-0.00891
	c0.75183-0.00574,1.50555-0.00525,2.25549-0.06482c0.3269-0.02588,0.638-0.0625,0.95599-0.14331
	c0.21338-0.05396,0.9024-0.16406,0.36475-0.13013c0.9007-0.05664,0.9071-1.46619,0-1.40918
	c0.17358-0.01099-0.22882-0.05103-0.32806-0.06812c-0.28235-0.04822-0.5545-0.08691-0.84076-0.10522
	c-0.62659-0.03979-1.26038-0.01538-1.88763-0.00879c-1.89471,0.01978-3.78931,0.0321-5.68414,0.03674
	c-2.22858,0.00549-4.45709-0.00281-6.68561-0.0116L501.19788,1093.75415z M501.14197,1128.60681
	c1.67682,0.05945,3.35352,0.12146,5.03064,0.17419c2.29242,0.07202,4.58514,0.14111,6.87836,0.1814
	c0.75104,0.01318,1.50519,0.03442,2.25549-0.01294c0.32666-0.02063,0.63776-0.05273,0.95599-0.13074
	c0.21143-0.05188,0.90613-0.15857,0.36475-0.12524c0.90082-0.05554,0.90717-1.46497,0-1.40906
	c0.17279-0.01074-0.22827-0.05444-0.32806-0.07251c-0.28235-0.05078-0.55414-0.09253-0.84076-0.11536
	c-0.62646-0.04993-1.25977-0.04187-1.88763-0.05078c-1.89502-0.02661-3.78961-0.06787-5.68414-0.11731
	c-2.2475-0.05859-4.49463-0.13306-6.74164-0.20825L501.14197,1128.60681z M462.59912,1031.42542
	c-0.00043-0.63452-0.00073-1.26917-0.00116-1.90369c-0.00031-0.4563-0.41138-0.93469-0.89642-0.89648
	c-1.04846,0.08301-2.0968,0.16577-3.14526,0.24878c-0.48187,0.03809-0.89478,0.37891-0.89447,0.89441
	c0.00037,0.57312,0.00073,1.14636,0.00104,1.71936v1.24072c0.00031,0,0.00049,0,0.00079,0
	c0.00525,8.43091,0.01056,16.86206,0.01581,25.29297c-0.00543,0.00012-0.01086,0.00012-0.0163,0.00024v1.89233
	c0.00586,0,0.01166,0,0.01746,0c0.00427,6.81982,0.00854,13.63953,0.01276,20.45935
	c0.00232,3.72131,0.00891,7.44238,0.01227,11.1637c-0.01404-0.00024-0.02808-0.00024-0.04211-0.00049v1.89783
	c0.01477,0.00012,0.02942,0.00037,0.04419,0.00049c0.00702,7.37024,0.01239,14.7406,0.02435,22.11084
	c-5.40814,0.01367-8.87585,0.09802-14.58545,0.17896c0.00482-1.48792,0.01007-2.97595,0.01459-4.46399
	c0.01831-5.9978,0.01117-11.99585,0.0094-17.99365c0.20215,0.00317,0.40436,0.00586,0.60602,0.00928
	c4.11737,0.0719,8.23578,0.10706,12.35413,0.14062v-1.89282c-3.27631-0.02515-6.55267-0.04785-9.82898-0.08057
	c-1.04102-0.01038-2.08551-0.02295-3.13019-0.03503c-0.00543-10.47253-0.01776-20.94519-0.02765-31.41772
	c4.32874,0.00916,8.65778-0.02283,12.98682-0.06396v-1.89294c-3.75281,0.0354-7.50574,0.07007-11.25891,0.09082
	c-0.57556,0.00317-1.1532,0.00464-1.73035,0.0061c-0.00037-0.45361-0.00153-0.9071-0.00183-1.36084
	c-0.00494-7.95654-0.00989-15.91321-0.01483-23.86963c4.20911-0.03784,8.41809-0.08252,12.62714-0.14624
	c0.12622-0.00195,0.25256-0.0033,0.37878-0.00513v-1.24036c-4.33588,0.05017-8.67133,0.10779-13.00665,0.177
	c-0.00043-0.72131-0.00092-1.44263-0.00134-2.16394c-0.00031-0.4563-0.41138-0.93469-0.89648-0.89648
	c-1.04846,0.08301-2.0968,0.16577-3.1452,0.24878c-0.48193,0.03809-0.89484,0.37891-0.89453,0.89441
	c0.00031,0.47473,0.00067,0.94934,0.00092,1.42395v0.021c0.00012,0.18506,0.00024,0.37012,0.00037,0.5553
	c-0.00012,0-0.00024,0-0.00037,0v1.16956c0.00037,0,0.00073,0,0.00104,0c0.00531,8.40527,0.01044,16.81055,0.01575,25.21582
	c-0.00549,0-0.01099,0.00024-0.01648,0.00024v1.82617c0.00586,0,0.01178,0,0.01758,0
	c0.00427,6.79773,0.00854,13.59521,0.01276,20.39294c0.00232,3.66711,0.00629,7.33411,0.00885,11.0011
	c-0.01294,0-0.02594,0.00024-0.03894,0.00024v1.81055c0.01349,0.00037,0.02698,0.00073,0.04041,0.00098
	c0.00781,10.47705,0.02295,20.9541,0.04602,31.43115c-0.02875-0.00061-0.05743-0.00049-0.08612-0.00098v1.81189
	c0.02997,0.0011,0.05981,0.00232,0.08978,0.0033c0.00659,2.79834,0.00842,5.59656,0.01697,8.39478
	c0.02362,7.76123,0.24683,15.53784,0.17749,23.302c-0.00415-0.00012-0.00842-0.00024-0.01257-0.00049v1.10596
	c-0.01233,0.95435-0.00909,1.90918-0.03265,2.86304c-0.00885,0.35962,0.30688,0.64514,0.65375,0.65369
	c1.04749,0.02576,2.09766,0.07764,3.1452,0.07764c0.203,0,0.35358-0.07629,0.46912-0.18311
	c0.01282-0.01184,0.03052-0.01892,0.04224-0.03174c0.01709-0.0155,0.02686-0.03906,0.04248-0.05652
	c0.10211-0.11475,0.17627-0.26172,0.17743-0.45996c0.00519-0.85571,0.00903-1.73145,0.01385-2.59155
	c4.40234,0.26697,8.80518,0.52454,13.20892,0.76648l0.00751-1.41663c-4.40283-0.1969-8.80591-0.3877-13.21002-0.55054
	c0.05786-10.46765,0.09784-21.18176,0.13171-31.71118c0.22247,0.00732,0.44507,0.01416,0.66711,0.02234
	c4.19257,0.15271,8.38593,0.28589,12.57916,0.42053l0.01001-1.8811c-3.35461-0.11084-6.70923-0.22156-10.06403-0.32275
	c-1.05902-0.03198-2.12256-0.06519-3.1864-0.09766c0.00555-1.76099,0.01141-3.5332,0.01678-5.27759
	c5.41693,0.23242,9.39771,0.2312,14.60785,0.35059c0.00293,1.79724,0.00781,3.59473,0.01086,5.39185l0.08032,16.48608
	c0.07294,5.74731,0.17517,11.49841,0.10754,17.24243c-0.00781-0.00049-0.01569-0.00073-0.0235-0.00098l0.00702,1.44568
	c-0.00995,0.57458-0.00549,1.14978-0.01965,1.724c-0.00891,0.35962,0.30688,0.64514,0.65369,0.65369
	c1.04755,0.02576,2.09772,0.07764,3.14526,0.07764c0.203,0,0.35358-0.07629,0.46912-0.18311
	c0.01282-0.01184,0.03052-0.01892,0.04218-0.03174c0.01715-0.0155,0.02692-0.03906,0.04254-0.05652
	c0.10211-0.11475,0.17627-0.26172,0.17743-0.45996c0.00299-0.49243,0.00421-0.98511,0.00708-1.47754
	c0.0025,0.00012,0.00494,0.00024,0.00745,0.00049l0.00171-1.48999c-0.00067,0-0.00146,0-0.00214,0
	c0.00146-0.26123,0.00165-0.52246,0.00311-0.78345L462.59912,1031.42542z M491.96765,1160.51917
	c-0.19348-0.00891-0.38696-0.01794-0.58044-0.02649c-4.12408-0.18408-8.24762-0.38147-12.37122-0.57959v1.57825
	c4.29724,0.22449,8.59485,0.44739,12.89178,0.6781L491.96765,1160.51917z M491.74811,1128.27466l0.0509-1.88306
	c-0.44116-0.01587-0.88239-0.03149-1.32355-0.04785c-3.81952-0.14062-7.63953-0.27515-11.45947-0.41089v1.88696
	C483.25995,1127.97266,487.50403,1128.12476,491.74811,1128.27466z M499.7196,1029.71814
	c-0.00018-0.22766-0.00031-0.45532-0.00043-0.68298c-0.00031-0.46606-0.41119-0.92334-0.8974-0.89746
	c-1.60132,0.08521-3.20251,0.17029-4.80383,0.25537c-0.4826,0.02563-0.89478,0.38904-0.89453,0.89453
	c0.00037,0.58496,0.00073,1.16992,0.00104,1.75488l0.00079,0.00098v1.21533c0.00507,8.44556,0.01019,16.89124,0.01526,25.33679
	c-0.00507,0.00012-0.01019,0.00012-0.01526,0.00012v1.87134c0.00543,0,0.01093,0,0.01636-0.00012
	c0.00439,7.22461,0.00873,14.4491,0.01312,21.67371c0.00214,3.56104,0.01007,7.12207,0.01434,10.68298
	c-0.01465-0.00012-0.02917-0.00012-0.04382-0.00024v1.87683c0.01544,0,0.03088,0.00024,0.04633,0.00037
	c0.00928,7.30627,0.01733,14.61243,0.02942,21.91882c-1.40741-0.07556-2.06616,0.01978-3.96063,0.01868
	c-2.27307-0.00122-4.54608,0.00037-6.81921,0.0011c-2.30981,0.00073-3.13904,0.00537-4.7373,0.01025
	c0.00415-1.24854,0.00842-2.49707,0.01215-3.74561c0.01855-6.10547,0.0116-12.21094,0.0097-18.31641
	c4.71283,0.0365,9.42566,0.07349,14.13849,0.10352l0.00537-1.87622c-0.45807-0.00293-0.91608-0.00562-1.37408-0.00903
	c-4.25635-0.03198-8.51245-0.07141-12.76874-0.10474c-0.00562-10.67615-0.0188-21.35217-0.02826-32.02808
	c4.7547-0.06128,9.50952-0.12012,14.26398-0.18994l0.00543-1.86951c-0.67426,0.01038-1.34863,0.02112-2.02295,0.03027
	c-4.08307,0.05579-8.16595,0.10461-12.2489,0.15576c-0.00024-0.27759-0.00092-0.55505-0.00104-0.83264
	c-0.00513-8.16895-0.01019-16.33765-0.0152-24.50659c2.53931-0.03369,5.07861-0.07275,7.61804-0.10229
	c2.24762-0.02612,4.4953-0.05591,6.74286-0.08521l0.00348-1.21533c-1.06091,0.01318-2.12177,0.02612-3.18268,0.04053
	c-3.72754,0.05017-7.45502,0.09204-11.1825,0.1394c-0.00031-0.57178-0.00067-1.14355-0.00104-1.71558
	c-0.00024-0.4563-0.41132-0.93469-0.89648-0.89648c-1.05499,0.0835-2.10986,0.16687-3.16486,0.25024
	c-0.48193,0.03809-0.89484,0.37891-0.89453,0.89453c0.00031,0.50977,0.00061,1.01953,0.00098,1.5293l0.00073,1.22729
	c0.01001,16.07227,0.01996,32.14453,0.02991,48.2168c0.01129,18.28003,0.02325,36.56006,0.07703,54.83984
	c0.02362,8.00806,0.25946,16.03223,0.16949,24.04248c-1.37219-0.06616-2.74445-0.12915-4.11658-0.19385
	c0.01001-0.06177,0.03699-0.11084,0.03784-0.17908c0.20007-16.4967,0.00763-33.00488-0.01581-49.50293
	c-0.02356-16.50098-0.12396-33.00208-0.18738-49.50305c-0.03546-9.21692-0.03326-18.44873-0.32159-27.66211
	c0.96985-0.01306,1.93976-0.02612,2.90961-0.03906v-1.22864c-1.27954,0.01599-2.55902,0.03186-3.83856,0.04785
	c-0.10382-0.01282-0.20416-0.01086-0.3075,0.00378c-1.05652,0.01318-2.1131,0.02637-3.16962,0.03955l0.00055,1.2356
	c0.75757-0.01001,1.51526-0.02014,2.27283-0.03052c-0.39386,16.40723-0.09821,32.84534-0.04034,49.25562
	c0.05817,16.50122,0.13184,33.00195,0.22992,49.50293c0.05524,9.29333,0.03931,18.58923,0.22052,27.88098
	c0.00055,0.02893,0.01434,0.04822,0.01666,0.07581c-0.88055-0.04126-1.76099-0.08276-2.64154-0.12427l0.00067,1.49866
	c2.97784,0.15222,5.95526,0.31055,8.9328,0.46985c-0.01001,0.58447-0.00549,1.16956-0.01984,1.75391
	c-0.00879,0.3595,0.30682,0.64502,0.65375,0.65356c1.05408,0.02588,2.11078,0.07764,3.16486,0.07764
	c0.20306,0,0.35352-0.07629,0.46906-0.18311c0.01282-0.01184,0.03058-0.01892,0.0423-0.03174
	c0.01721-0.0155,0.02686-0.03906,0.04248-0.05652c0.05762-0.06482,0.10144-0.14343,0.13318-0.23218l0.19672-37.27087
	c0.00574-1.79053,0.0166-3.5813,0.02209-5.37207c5.64508,0.23242,9.40387,0.45312,15.54083,0.46655
	c0.00281,1.82153,0.00531,3.64307,0.00732,5.4646v1.88452c0.00085,0,0.00177,0.00012,0.00256,0.00012
	c0.00311,2.79114,0.00562,5.58228,0.01123,8.37341c0.01611,7.95276,0.2702,15.9281,0.21259,23.88599
	c-0.00549-0.00024-0.01099-0.00049-0.01654-0.00073v1.66333c-0.01093,0.81116-0.00482,1.62329-0.02417,2.43408
	c-0.00806,0.33899,0.28931,0.60889,0.61682,0.6167c1.59991,0.03809,3.20374,0.1145,4.80383,0.1145
	c0.20288,0,0.35339-0.07629,0.46887-0.18298c0.01294-0.01184,0.03082-0.01904,0.0426-0.03186
	c0.01697-0.01562,0.02667-0.03882,0.04218-0.05615c0.10229-0.11487,0.17645-0.26184,0.17761-0.46021
	c0.00415-0.70093,0.0058-1.40161,0.0097-2.10254l0.14191-34.02368l0.00604-98.82104L499.7196,1029.71814z M524.22314,1060.33179
	c-0.02234-9.52808-0.12598-19.05261-0.25415-28.57959c0.39319-0.32837,0.27374-1.13062-0.38025-1.12231
	c-0.02454,0.00049-0.03052,0.00122-0.03027,0.00183c-0.00653-0.0011-0.03204-0.00378-0.14526-0.01172
	c-0.18011-0.01257-0.36127-0.0238-0.54163-0.03064c-0.66718-0.026-1.33569,0.0022-2.00348,0.01501
	c-2.49933,0.04822-4.9967,0.151-7.49628,0.18176c-4.02441,0.04919-8.04871,0.10181-12.07306,0.15332l-0.00195,1.21582
	c3.21326-0.04028,6.42657-0.07935,9.63983-0.12195c4.05945-0.05383,8.22089,0.23633,12.27081-0.11121
	c-0.45361,33.97339-0.39868,67.95947-0.49274,101.93604c-0.02588,9.36353,0.00476,18.72754,0.03314,28.09106
	c-0.18433-0.02148-0.36786-0.05029-0.55505-0.06201c-0.28351-0.01782-0.56781-0.02551-0.85187-0.03772
	c-0.0307-0.8446-0.15442-1.77991-0.13153-2.03784c-0.38306-7.79187-0.289-15.59583-0.33026-23.39417
	c-0.00067-0.1792-0.25836-0.17297-0.27417,0c-0.66919,8.42383-0.81256,16.98145-0.11414,25.39453
	c-0.20935-0.00806-0.41864-0.01855-0.62775-0.02783c-0.19531-0.00867-0.39056-0.01733-0.58588-0.02588
	c0.12903-0.84375-0.22571-2.42432-0.17035-2.87683c-0.23242-3.67859-0.40698-7.36523-0.44342-11.05115
	c-0.00098-0.20398-0.30304-0.20105-0.31482,0c-0.09729,4.56274-0.68726,9.43604,0.22833,13.89697
	c-1.93652-0.08569-3.87311-0.17114-5.80963-0.25684c-3.8927-0.17212-7.78497-0.35376-11.67737-0.53406l-0.00275,1.72766
	c3.15503,0.17188,6.31024,0.34253,9.46515,0.51746c2.86438,0.15881,5.7287,0.31775,8.59308,0.47668
	c0.9184,0.0509,1.83679,0.10156,2.75525,0.15283c0.32587,0.01807,0.64197,0.02881,0.96765,0.01733
	c0.2522-0.00891,0.86084-0.03857,0.7204-0.04553c0.4978,0.02478,0.75781-0.31433,0.80524-0.69543
	c0.01031-0.0542,0.03284-0.09937,0.03302-0.16064C524.53003,1128.72852,524.30334,1094.52979,524.22314,1060.33179z
	 M566.69537,1162.70898c-4.64734,0.33923-9.28033,1.12195-13.90387,1.69958c-6.99493,1.12512-15.11725,1.31897-21.58881,2.67578
	c11.86743-0.90308,23.7876-2.07532,35.54803-3.96606C566.97852,1163.07178,566.93036,1162.69189,566.69537,1162.70898z
	 M583.35779,1160.11597c-4.42755,0.72217-9.67645,1.14087-13.64386,2.41833c6.1062-0.80115,12.28986-1.31201,18.32819-2.49866
	C588.51599,1159.20459,583.992,1160.10803,583.35779,1160.11597z M662.60736,1146.19922
	c-0.09772-25.19238-0.04462-50.38745-0.04462-75.57983c0-7.10815,0-14.21619,0-21.32422c0-0.59473-0.4726-0.97119-1.02557-1.02563
	c-16.80798-1.65588-33.56091-4.08154-50.28998-6.37671c-20.52148-2.81555-41.02173-5.78174-61.53485-8.65625
	c-6.65643-0.93286-13.30701-1.96997-19.97833-2.78137c-0.62762-0.07629-0.77692,0.90833-0.23248,1.1217
	c-0.04382,0.05566-0.07697,0.1228-0.07941,0.21289c-0.461,17.09802-0.46289,34.2019-0.67114,51.30359
	c-0.20825,17.10046-0.31525,34.20227-0.45276,51.30347c-0.07794,9.69067-0.15558,19.38135-0.23334,29.0719
	c-0.0033,0.40405,0.38416,0.88623,0.82727,0.82739c17.17755-2.27808,34.3891-4.28613,51.59741-6.31494
	c17.54858-2.06885,35.09674-4.15723,52.59668-6.60913c9.35797-1.31104,18.7243-2.6665,28.04712-4.20947
	C661.76294,1147.38562,662.61072,1147.06628,662.60736,1146.19922z M650.82874,1147.05444
	c0.87213-0.1416,1.74512-0.27759,2.61713-0.4198c-0.12445-0.82886-0.19806-1.67004-0.23981-2.51782
	C652.48956,1145.03589,651.62878,1146.14551,650.82874,1147.05444z M653.16339,1142.09253
	c0.00006-0.7749,0.01306-1.55078,0.0332-2.32544c-1.65393,1.87012-3.31018,3.73828-4.99182,5.58374
	c-0.32697,0.21973-1.22363,1.40259-2.11774,2.39185c-0.00336,0.02441-0.00446,0.04907-0.00787,0.07349
	c0.93494-0.14453,1.86823-0.30005,2.80243-0.44946C650.20129,1145.54443,651.64447,1143.79053,653.16339,1142.09253z
	 M643.99103,1138.7439c-0.00208-1.12939-0.00323-2.25854-0.00537-3.38782c-1.09662,1.40173-2.1922,2.80408-3.30688,4.19202
	c-1.09125,1.27979-2.13269,2.61609-3.16827,3.9585c-0.00024,0.77209-0.00055,1.54419-0.00073,2.31616
	c-0.00006,0.08813-0.00488,0.16919-0.00604,0.25562C639.62866,1143.60571,641.79181,1141.15881,643.99103,1138.7439z
	 M498.16052,1158.19788c0.02325,0.20325,0.29333,0.20361,0.31659,0c0.21899-1.91492,0.10187-3.88611,0.10345-5.81116
	c0.00159-1.93701,0.00323-3.87415,0.00488-5.81116c0.00317-3.87268,0.06403-7.7511-0.05481-11.62244
	c-0.00836-0.27246-0.41522-0.27295-0.42365,0c-0.11877,3.87134-0.05798,7.74976-0.05475,11.62244
	c0.00159,1.88977,0.00317,3.77966,0.0047,5.66931C498.05865,1154.21643,497.93628,1156.23682,498.16052,1158.19788z
	 M498.68524,1161.73999c-0.01965-0.349-0.04828-0.69739-0.07373-1.0459c-0.02673-0.36584-0.02264-0.75146-0.10333-1.10986
	c-0.06396-0.28369-0.44653-0.18872-0.47302,0.06396c-0.03583,0.34216,0.01233,0.70239,0.02728,1.0459
	c0.01575,0.36206,0.02881,0.72437,0.0506,1.08606c0.021,0.34839,0.03564,0.69812,0.06488,1.04578
	c0.02679,0.31836,0.00885,0.74011,0.1756,1.01978c0.06573,0.11035,0.26416,0.13342,0.32343,0
	c0.13861-0.31226,0.07965-0.72485,0.06671-1.05994C498.73022,1162.43701,498.70496,1162.08838,498.68524,1161.73999z
	 M498.75916,1052.1228c-0.00952-7.45972,0.06439-14.92896-0.08264-22.38733c-0.00482-0.24377-0.37421-0.24426-0.37903,0
	c-0.13104,6.65076-0.07104,13.31116-0.07947,19.96313c-0.00836,6.60681-0.01892,13.21375-0.01746,19.82068
	c0.00299,13.21362,0.005,26.42725,0.00183,39.64111c-0.00183,7.46094-0.08545,14.927,0.01257,22.38721
	c0.00464,0.34998,0.53943,0.35059,0.54401,0c0.17419-13.25684,0.00641-26.52563,0.00946-39.78369
	C498.77142,1078.55017,498.77588,1065.33643,498.75916,1052.1228z M544.34729,1133.9585
	c-0.10791-15.69617,0.0069-31.39563,0.03992-47.09204c0.01678-7.96436,0.04962-15.92859,0.0921-23.89282
	c0.0213-3.98242,0.05115-7.96436,0.09448-11.94653c0.02301-2.11768-0.05804-4.3219,0.03955-6.49658
	c-2.12598,1.86877-4.26038,3.73315-6.39386,5.59937c0.008,1.13916,0.01331,2.27881,0.02002,3.41797
	c2.99982-2.49365,5.80591-4.3833,5.60986-3.10474c-1.85992,1.44873-3.74432,2.89233-5.60468,4.37134
	c0.0188,3.42639,0.03778,6.85254,0.04211,10.27966c0.02063,16.26929,0.0661,32.53821,0.13477,48.80737
	c0.03406,8.07129,0.01898,16.14294,0.02399,24.21448c0.00482,7.72803,0.39496,15.63147-0.38995,23.33472
	c2.52203-0.32373,5.04401-0.64917,7.56732-0.96252c-0.00012-0.00159-0.0011-0.00256-0.00122-0.00403
	C544.73254,1151.67236,544.40814,1142.81201,544.34729,1133.9585z M538.14252,1040.80029
	c0.00702,0.76965,0.01233,1.53931,0.01904,2.30884c3.48413-2.90698,7.38507-5.677,10.85229-8.24353
	c-0.83765-0.13147-1.67664-0.25378-2.5141-0.38684c-0.36896-0.05859-0.73938-0.11426-1.1087-0.172
	C543.09973,1036.57593,540.55255,1038.61694,538.14252,1040.80029z M634.74133,1149.32471
	c0.13141-0.15576,0.26508-0.31042,0.39667-0.46619c-0.09064-0.34436-0.16895-0.69104-0.19757-1.04797
	c-0.02588-0.32263-0.0202-0.65356-0.01965-0.98315c-0.82642,1.03345-1.67444,2.04199-2.55811,3.00964
	c0.76465-0.10486,1.52954-0.20776,2.29364-0.31592C634.67389,1149.45605,634.69604,1149.39038,634.74133,1149.32471z
	 M536.01233,1135.34155c0.01636-26.28394,0.02441-52.57202,0.1886-78.85645c-1.63428,1.35315-3.24158,2.74011-4.75854,4.22766
	c-0.52551-0.2782,1.91479-2.85852,4.76727-5.41309c0.00739-1.14392,0.01715-2.28784,0.02521-3.43176
	c-1.86719,1.64075-3.72803,3.28711-5.56781,4.95117c-0.2218,0.18835-0.52991-0.10815-0.32324-0.32324
	c1.91162-1.93726,3.8938-3.80371,5.8985-5.64697c0.01251-1.7395,0.02423-3.479,0.03833-5.21851
	c-1.44434,1.16589-2.883,2.34021-4.3219,3.5166c1.23438-1.49756,2.71423-2.97229,4.32855-4.41833
	c0.00604-0.73132,0.00977-1.46277,0.01611-2.19421c-0.36395,0.36011-0.72443,0.72375-1.07452,1.09753
	c-1.02423,0.2926-0.3241-0.71399,1.08246-2.17981c0.00775-0.87329,0.01105-1.74658,0.01923-2.61975
	c-1.56213,1.44214-3.06909,2.94421-4.51251,4.50012c-0.13,0.14026-0.33173-0.06641-0.20825-0.20825
	c1.49585-1.71619,3.07501-3.34619,4.72522-4.90186c0.00049-0.0542,0.00073-0.1084,0.00122-0.1626
	c0.00635-0.66187,0.59058-0.9292,1.08936-0.82861c1.15094-1.04028,2.32452-2.05688,3.54492-3.02368
	c0.25934-0.20532,0.62799,0.16187,0.36627,0.36633c-1.18372,0.92456-2.33185,1.89612-3.46277,2.88794
	c0.14282,0.14246,0.24335,0.33655,0.24585,0.59802c0.00513,0.53296,0.00824,1.0658,0.01318,1.59875
	c2.2998-2.16907,5.13617-4.57629,6.40619-5.48401c-2.58008-0.39929-5.16418-0.79675-7.74304-1.22437
	c-0.57587,1.20117-4.54059,4.36548-4.88074,4.80444c-1.92474,0.51111,2.68018-3.6759,4.13995-4.92944
	c-1.97968-0.33496-3.95551-0.68787-5.91626-1.10254c0.00433,0.02283,0.01385,0.0415,0.01422,0.06714
	c0.12946,9.69019,0.11932,19.38159,0.07123,29.07202c-0.1684,33.89087-0.31213,67.78174-0.50043,101.67249
	c2.23334-0.29993,4.46863-0.58264,6.70325-0.8717c-0.43854-4.32788-0.38287-8.68579-0.40369-13.03333
	C536.00256,1144.19995,536.00952,1139.77087,536.01233,1135.34155z"/>
</svg>
