<?xml version="1.0" encoding="utf-8"?>
<!-- Generator: Adobe Illustrator 27.9.0, SVG Export Plug-In . SVG Version: 6.00 Build 0)  -->
<svg version="1.1" id="Layer_1" xmlns="http://www.w3.org/2000/svg" xmlns:xlink="http://www.w3.org/1999/xlink" x="0px" y="0px"
	 viewBox="0 0 250 183.89177" style="enable-background:new 0 0 250 183.89177;" xml:space="preserve">
<style type="text/css">
	.st0{display:none;}
	.st1{display:inline;}
	.st2{fill:#FFFFFF;}
	.st3{fill:#FF7A95;}
	.st4{fill:#FFDA69;}
	.st5{fill:#492C54;}
	.st6{fill:#B090F0;}
	.st7{fill:#AFC282;}
	.st8{fill:#5E5357;}
	.st9{fill:#91AB76;}
	.st10{fill:#E6BF6C;}
	.st11{fill:#FFC7DE;}
	.st12{fill:#E09FB9;}
	.st13{fill:#CFA49B;}
	.st14{fill:#BD877D;}
	.st15{fill:#656569;}
	.st16{fill:#343436;}
	.st17{fill:#7C7C80;}
	.st18{fill:url(#path-02_00000013895804834134921100000014255265798863234721_);}
	.st19{fill:#543C41;}
	.st20{fill:#FFA1AF;}
	.st21{fill:#FFD4DA;}
	.st22{fill:#A7CF61;}
	.st23{fill:#8BB348;}
	.st24{fill:#C7ABFF;}
	.st25{fill:#CFA753;}
	.st26{fill:#3537A3;}
	.st27{fill:#146CC2;}
	.st28{fill:#28617D;}
	.st29{fill:#E35858;}
</style>
<g class="st0">
</g>
<path id="path-01_00000131330312756020665370000006175803977466206383_" d="M246.12996,120.27265h2.34976v-5.11626
	l-57.50539-5.32066V9.57812l55.0497,36.03493L194.23003,2.25723c-2.07504-1.73697-4.78244-2.526-7.46576-2.17577L93.86735,12.20651
	c-2.74953,0.35887-4.80629,2.70153-4.80629,5.47438v16.64077c25.40339-5.176,51.3018-7.04897,77.54955-6.59351
	c5.71025-0.1991,10.44785,4.37598,10.44785,10.08986v69.97133h-3.48625l-1.2717-76.15373c0,0-14.73445-3.91374-25.17137-0.69063
	c-10.18965,3.14681-12.11011,6.87933-12.90964,10.76791c-2.95203-0.24858-7.41058-0.43576-14.1547-0.40779
	c-1.60535,0.00679-3.33565,0.04998-5.14605,0.12016L94.3463,61.87705c13.44238-0.14117,26.56618,0.33596,34.28543,0.69791
	c-0.04767,0.00298-34.00193,2.14041-45.27512,7.7386V89.4566c0.0993-3.47219,1.56911-17.03821,18.41814-18.37544
	c19.33898-1.53484,38.6778-1.36571,38.6778-1.36571v16.84192c0,0,9.03,2.3021,13.07167,21.23197c0,0,1.3111,9.26402,2.0666,17.88158
	c-0.63652-2.19668-1.35793-4.0895-2.1472-5.60084c-0.92366-6.37373-2.29945-13.43776-4.01221-15.0436
	c-3.27425-3.06969-6.86229-3.06969-11.82166-3.06969c-4.32434,0-8.06778-1.86717-11.36371,6.06689
	c-0.82171,1.97839-2.52338,3.40118-4.53254,3.96538c1.38953-2.99538,3.7916-8.11777,5.0024-10.37452
	c1.76488-3.29014,18.80177-1.29488,18.80177-1.29488s-16.90895-4.83458-20.69476,0.6908
	c-2.36267,3.44803-4.59543,8.18993-5.94044,11.26871l-99.50311,1.50887c-9.66949,0-9.77177-2.4686-9.10679-8.24983
	c0,0-4.8369,10.44303,8.20234,9.81976l-3.5978,6.2448H120.0648l-1.01221,10.86385c-0.29529,3.16927-2.97398,5.58105-6.15675,5.5433
	l-81.47472-0.96669c-0.74657,4.04199-1.17968,8.71291-1.17968,13.70653c0,12.98213,2.8888,23.84189,6.77655,26.79607
	c-4.64889-1.701-8.24487-13.03558-8.24487-26.79607c0-5.01564,0.48591-9.69597,1.31771-13.72224l-12.4479-0.1478
	c-3.42677-0.04068-6.15011-2.89095-6.03477-6.31601l0.25022-7.43057H8.89396C3.98192,123.13315,0,135.49763,0,150.74977
	c0,15.25212,3.98192,27.61661,8.89396,27.61661h30.24161c4.52924,0,8.2596-10.52016,8.81485-24.11496
	c0.24378,0.02184,0.48674,0.04666,0.73499,0.05164l49.84986,0.97247c3.15343,0.0614,5.97454-1.29123,7.89549-3.47054
	c0.27655,17.88425,4.48058,30.73099,9.62729,30.73099l32.78633,1.35579c5.14026,0,9.33998-14.16861,9.62598-32.02223h11.84332l0,0
	h0.00017c3.09717,0,5.64934-6.27873,6.04074-14.4041l20.54581-0.61633c-0.04402,0.93176-0.07448,1.87479-0.07448,2.83932
	c0,12.20627,3.64198,22.1015,8.13464,22.1015h27.65898c1.58383,0,3.05711-1.24919,4.30714-3.37653h5.58809
	c4.13387,0,7.48523-9.10515,7.48523-20.33662C250,130.40886,248.43669,123.73756,246.12996,120.27265z M159.94495,45.526
	c6.52318-2.22564,9.66949,0.46042,9.66949,0.46042v21.48783h-9.66949V45.526z M142.63731,68.20775
	c-1.52095-0.1329-2.56989-1.8632-2.30658-3.22493c0.29277-5.64024,0.7148-11.26756,1.80727-16.83017
	c0.11635-0.46902,0.14001-0.89535,0.38297-1.46964c0.45099-1.0405,1.70944-1.64755,2.77609-1.41966l1.39235,0.20026
	c1.85178,0.3123,3.70853,0.57908,5.55583,0.93209c-1.88008-0.04932-3.75089-0.18503-5.62666-0.27506
	c-1.14592-0.0801-2.72644-0.43592-3.23056,0.93987c-0.98108,5.72001-1.29834,12.16573-1.77614,17.99727
	c-0.11502,0.8558,0.05925,1.40691,0.73051,1.83109c0.48029,0.30071,1.90044,0.28102,2.52966,0.41524
	c3.28931,0.37403,7.93456,0.96851,11.15915,1.50026C151.91391,68.75654,146.7672,68.47552,142.63731,68.20775z M146.5446,176.71867
	c-0.09087-0.2034-0.18222-0.42633-0.27357-0.64975c1.86932-4.58815,3.84207-13.42799,3.84207-26.14302
	c0-12.71501-1.97275-21.55486-3.84207-26.14284c0.09135-0.22359,0.18271-0.44635,0.27357-0.64992
	c0.86804-2.00023,1.7197-3.00018,2.29829-3.00018c1.86418,0,6.42834,10.4379,6.42834,29.79293
	c0,19.35487-4.56416,29.79279-6.42834,29.79279C148.2643,179.71869,147.41264,178.71857,146.5446,176.71867z M146.14293,149.9259
	c0,8.04214-1.14096,13.8338-2.31418,17.14645c-0.83578-4.54182-1.4142-10.29211-1.4142-17.14645
	c0-6.85466,0.57841-12.60478,1.4142-17.14644C145.00197,136.09229,146.14293,141.88394,146.14293,149.9259z M137.60976,149.92822
	c0-16.89471,3.88362-30.83691,8.9115-32.96474c-4.20287,3.66267-7.31938,17.0291-7.31938,32.96474
	s3.11652,29.30208,7.31938,32.96475C141.49338,180.76514,137.60976,166.8231,137.60976,149.92822z M240.72969,154.11835
	c-0.07016-0.12181-0.14166-0.2787-0.21249-0.41241c1.45126-2.74681,2.98264-8.01582,2.98264-15.63063
	c0-7.61449-1.53137-12.88367-2.98264-15.63063c0.07083-0.13372,0.14233-0.29062,0.21249-0.41209
	c0.67375-1.19789,1.33493-1.79667,1.78409-1.79667c1.44713,0,4.98999,6.2501,4.98999,17.83939
	c0,11.58945-3.54286,17.83939-4.98999,17.83939C242.06462,155.91469,241.40344,155.3159,240.72969,154.11835z M232.61838,159.0744
	c-0.48805,0-1.20665-0.65074-1.93883-1.95222c-0.07646-0.13223-0.15392-0.3027-0.23103-0.44801
	c1.57721-2.98529,3.24149-8.71175,3.24149-16.9874c0-8.27548-1.66428-14.00211-3.24149-16.98723
	c0.07712-0.14531,0.15457-0.31577,0.23103-0.44801c0.73218-1.30166,1.45078-1.9524,1.93883-1.9524
	c1.57275,0,5.42311,6.79244,5.42311,19.38763S234.19113,159.0744,232.61838,159.0744z M230.34061,139.68677
	c0,5.23343-0.96254,9.00237-1.95222,11.158c-0.70503-2.95551-1.1931-6.69745-1.1931-11.158
	c0-4.46054,0.48807-8.2025,1.1931-11.15799C229.37807,130.68457,230.34061,134.45351,230.34061,139.68677z M237.71645,122.47595
	c-0.14018-0.3065-0.28484-0.59712-0.4323-0.87831c1.00774-1.71424,2.18262-2.84792,3.44885-3.25323
	C239.60645,119.0933,238.5782,120.51726,237.71645,122.47595z M223.14203,139.68843c0-11.0127,3.28915-20.08373,7.541-21.44514
	c-3.55576,2.364-6.19814,11.05521-6.19814,21.44514c0,10.38974,2.64238,19.08096,6.19814,21.44496
	C226.43118,159.77216,223.14203,150.70094,223.14203,139.68843z M238.16246,155.83327
	c0.09302-0.23567,0.18669-0.46771,0.27539-0.71463c0.69377,1.22768,1.46765,2.1404,2.29515,2.69052
	C239.81796,157.51622,238.95305,156.83586,238.16246,155.83327z M116.05804,99.70567H86.09365v-8.9019
	c0-9.60693,7.78809-17.39486,17.39502-17.39486h25.32313c3.84686,0,6.99583,3.06026,7.10556,6.90548l0.21217,7.41969
	c0,0,6.13937,2.14885,9.10663,4.60454C145.23616,92.33861,127.70658,85.78995,116.05804,99.70567z M117.22085,124.31432
	l-0.73548,7.90029c-0.16418,1.75827-1.61859,3.08426-3.38348,3.08426l-95.29411-1.13069
	c-0.92216-0.01059-1.78078-0.38396-2.41762-1.0506c-0.63684-0.66663-0.97049-1.54114-0.93938-2.46263l0.21316-6.34063H117.22085z
	 M67.43686,63.34222c-2.01877,0.24063-3.94221,0.51421-5.72149,0.83197l5.67879-18.11097c0,0,9.60941-1.31407,21.38985-2.56062
	L67.43686,63.34222z M72.93741,62.78564l20.76659-19.78583c5.50303-0.54085,11.24008-1.03024,16.53607-1.34187L89.82765,61.9492
	C84.00256,62.07432,78.24499,62.3378,72.93741,62.78564z M83.35661,89.4566v0.80995
	C83.35661,90.26655,83.34205,89.96981,83.35661,89.4566z M58.51775,64.17419c0,0-6.5485,0.43493-8.95321,1.10007V48.95383
	c0-1.2962,8.79979-1.2962,8.79979,0L58.51775,64.17419z M32.09306,100.31966H11.37265c0,0,6.13938-9.13227,20.72041-11.28112
	V100.31966z M35.23937,111.06358l-0.03492-4.32087l46.38711-0.87649v4.46585L35.23937,111.06358z M81.59156,103.37396
	l-46.40664,0.95775l-0.03508-4.33112l46.44172-1.10339V103.37396z M81.59156,96.39898l-46.46125,1.18497l-0.03525-4.34122
	l46.49651-1.33144V96.39898z M81.59156,89.40694l-46.5162,1.4132l-0.03509-4.35149l46.55128-1.56033V89.40694z M81.59156,82.3977
	l-46.57114,1.64275l-0.03525-4.36158l46.6064-1.7907V82.3977z M34.96547,77.2447l-0.03542-4.37184
	c14.90292-5.65878,30.46818-6.24564,46.66151-2.02208v4.52079L34.96547,77.2447z M62.63637,46.75384
	c0,0-0.76759-5.67879,8.90191-6.9068c9.66949-1.22784,41.55898-6.67659,54.16228-6.2928l-55.23009,8.6227
	c-1.88256,0.29393-3.22227,1.98633-3.07631,3.88627C63.25021,46.75384,62.63637,46.75384,62.63637,46.75384z M225.95322,108.98855
	v-0.02863l-1.85823-0.18139v0.02698l-2.53481-0.24991v-0.02449l-1.99095-0.1943v0.02284l-2.71884-0.26794v-0.02036l-2.13824-0.2087
	v0.01837l-2.92372-0.28796v-0.01589l-2.30244-0.22475v0.0139l-3.15277-0.31065v-0.01092l-2.48647-0.24279v0.00893l-3.40996-0.33596
	v-0.00579l-2.69301-0.26299v0.00331l-3.69975-0.36443V14.8804l3.69975,2.49209v62.46674l2.69301,1.68992V19.18638l3.40996,2.29681
	v62.18588l2.48647,1.56V23.15771l3.15277,2.12369v61.92605l2.30244,1.44482V26.8323l2.92372,1.96928v61.68541l2.13824,1.34155
	V30.24176l2.71884,1.83142v61.46165l1.99095,1.24919V33.41406l2.53481,1.70746v61.25312l1.85823,1.16595V36.3732l2.36896,1.59542
	v61.0585l19.18159,12.03647l-19.18159-1.87247v0.03078L225.95322,108.98855z M94.22829,102.06536h7.98122l-6.13937,8.1982h-8.49279
	L94.22829,102.06536z M106.45592,110.26356h-8.49279l6.65094-8.1982h7.98122L106.45592,110.26356z M17.37334,102.67307h6.92236
	l-5.32479,8.29981h-7.36606L17.37334,102.67307z M27.97873,110.97289h-7.36606l5.76866-8.29981h6.92236L27.97873,110.97289z"/>
</svg>
