<?xml version="1.0" encoding="UTF-8"?>
<svg id="Layer_1" data-name="Layer 1" xmlns="http://www.w3.org/2000/svg" version="1.1" viewBox="0 0 193.8197 250">
  <defs>
    <style>
      .cls-1 {
        fill: #000;
        stroke-width: 0px;
      }
    </style>
  </defs>
  <path id="path-01" class="cls-1" d="M191.418,131.72983c-.01363-.12338-.00826-.24728-.03654-.36987-.18456-.80446-.3987-1.59479-.6021-2.39059-.00957-.03694-.01846-.07439-.02803-.11159-6.8683-26.74235-24.28535-48.37189-47.23906-60.8781-11.11903,33.39703-40.37391,65.01932-41.89835,66.65077-1.21756,1.30296-2.92079,2.04246-4.70391,2.04246s-3.48635-.7395-4.70391-2.04246c-1.52339-1.63014-30.73794-33.21026-41.87426-66.58214-7.89385,4.34634-15.20394,9.85366-21.76549,16.4067-.10347.10321-.20655.20668-.30963.31015-.53137.53543-1.07598,1.05227-1.59713,1.60159-.09234.09745-.15599.21297-.23445.31958C12.40116,101.56347,3.02059,120.85088.62437,142.23156c-.00419.02934-.01637.05658-.01978.08644-.00747.06627-.00969.13518-.01703.20171-.15796,1.44913-.27544,2.90979-.36857,4.37778-.01886.29626-.05108.58678-.06732.88383-.09548,1.75876-.15167,3.528-.15167,5.31033,0,.19856.01388.39398.01506.59254.00747,1.1987.03864,2.39426.09103,3.58615.02672.62712.06352,1.25056.10216,1.87454.04597.72379.10308,1.44546.16529,2.16637,1.93165,22.86859,11.83011,43.49169,26.91445,59.08896.11199.1163.22188.23471.33452.35075.58036.59412,1.16923,1.17905,1.76465,1.7585.49614.48488,1.00014.9619,1.50702,1.43655.4114.38376.81808.77225,1.23616,1.14867,1.02581.92784,2.07179,1.83473,3.13886,2.71986.04362.03615.08854.07047.13229.10635,1.12745.93204,2.28175,1.83368,3.45386,2.71594.07151.05344.1429.10741.21467.16084,4.99402,3.73651,10.37482,7.0256,16.11318,9.76565.06392.0304.13281.04243.19817.06863,12.33527,5.87536,26.099,9.20952,40.61596,9.34495.063.00368.12338.02097.1869.02097h.64362c.02764,0,.05488.00211.08252.00211.1556,0,.30845-.011.46379-.0118,1.36229-.00655,2.71948-.0406,4.0705-.10347.5797-.02672,1.15404-.0723,1.73099-.10922.93308-.06,1.86446-.12627,2.79138-.21297.65096-.06052,1.29838-.1315,1.94566-.20485.85135-.09692,1.69916-.20537,2.54462-.32429.6596-.09273,1.31868-.18599,1.97395-.29208.86-.1391,1.71357-.29784,2.56676-.45973.60839-.11526,1.21979-.22108,1.82412-.34787,1.34448-.28186,2.68031-.5894,4.0058-.92679.4393-.11159.87178-.23994,1.30859-.35783,1.04546-.28186,2.08738-.57211,3.11987-.88802.49745-.15247.98848-.31854,1.4824-.47885.94827-.30675,1.89195-.62344,2.82819-.95876.44965-.16136.89667-.32744,1.34317-.49509,1.04323-.39136,2.07742-.80054,3.10429-1.22647.30269-.12573.60669-.24834.90781-.37721,26.92245-11.48564,47.96508-34.86764,55.72782-64.47996.01048-.03983.00706-.08067.01598-.1205,2.05279-7.83923,3.15366-16.05882,3.15366-24.53251,0-7.341-.84769-14.4837-2.40173-21.36183l.00003-.00008ZM187.38194,153.09165c0,7.24354-.8799,14.28146-2.49538,21.037-.99503.17445-1.98849.33792-2.98575.52496-3.10155.58049-6.03227,1.13164-8.93892,1.33911-2.14802.14461-4.30128.10269-6.58343.05869-2.17841-.04192-4.43227-.08383-6.71231.0482-10.35347.60355-20.24171,4.84091-27.86038,11.9451l-.76282.72928c-1.14107,1.10229-2.21823,2.14174-3.35825,2.74528-1.60211.83197-3.68726.99123-5.89397,1.16098-.79844.06078-1.59687.12364-2.36806.21165-5.17202.55952-8.94625,2.7348-10.628,6.12762-2.13859,4.3128-.3133,8.57322,1.1526,11.99748.82463,1.9238,1.60211,3.74071,1.71632,5.36062.23157,3.36978-2.34396,6.66202-5.23279,10.01503-.91265,1.0562-1.94579,2.2549-2.95798,2.65097-.42437.15717-1.02686.25148-1.66393.35207-1.10649.17184-2.36073.36884-3.64221.99123-5.01275,2.43932-4.7969,7.36404-4.66802,10.30841.03143.71042.06811,1.41455.02934,2.09773-.01074.21165-.0482.45631-.07007.68159-11.83194-.44688-23.08273-3.17699-33.33731-7.76117l2.40146-15.84036c.17603-1.17564.41598-2.78509,1.11068-3.50391.19909-.20956.43589-.38141.66327-.56163.54801-.4317,1.22909-.96819,1.82634-1.74985,2.89826-3.78262.91684-8.8771-2.53991-11.95767-.49247-.43799-1.01219-.86549-1.534-1.293-1.47637-1.20918-2.86997-2.3513-3.2168-3.56886-.27767-.98495.03039-2.4016.35626-3.90207.49981-2.30099,1.12116-5.16154-.14774-7.99273-1.64821-3.70927-5.60896-5.22232-7.72031-6.02913l-18.73704-7.2949c-1.43551-.55743-3.06172-1.18613-3.8392-2.14383-1.14422-1.40407-.84978-3.6003-.22842-7.04761.48095-2.67194,1.02686-5.70012.38979-8.68429-1.33073-6.3309-7.11991-10.61857-17.18418-12.74144-1.31933-.28763-2.84652-.62869-4.37096-1.0321,2.59112-18.32394,10.67436-34.90484,22.55005-47.99887,3.32682,1.39779,5.42926,3.2016,6.1753,6.86686.18546.91789.27977,1.93427.37931,3.00933.27453,2.95694.58573,6.30785,2.95484,9.05732,1.80224,2.09354,4.16821,3.03867,6.25441,3.87063.92417.36883,1.79596.71671,2.51895,1.12326,2.74109,1.55077,4.67221,4.63554,6.58552,7.69097,3.41378,5.54085,6.94492,11.27031,8.634,17.35392l.23471.88226c.40131,1.52982.85607,3.26498,1.80434,4.92683,1.47532,2.5357,3.74699,4.23318,5.55762,5.42558,4.90378,3.23775,10.53579,5.49475,16.26734,6.52789.51343.09641,1.03105.18233,1.54972.26823,1.85149.31015,3.59925.60146,4.95407,1.34959,1.18718.64336,2.279,1.76244,3.43579,2.94646.3353.34367.66955.68527,1.01009,1.02267,3.19898,3.15182,6.84118,5.77347,10.83337,7.79365,2.83434,1.42712,5.38054,2.13754,7.68887,2.13545,1.23223,0,2.39636-.20119,3.50075-.60355,4.09172-1.44389,6.3351-5.26842,7.81776-7.79365,3.54163-6.01027,7.06228-11.99959,10.57875-18.00358.81834-1.38731,1.66498-2.82281,2.73794-3.58144.75862-.53857,1.81482-.87598,2.77776-1.14001,3.72183-1.06457,7.56-1.61572,11.43063-1.63458l.54277-.0042c1.67441-.01257,3.57201-.02515,5.52724-.78377,1.10649-.44218,1.99504-1.05411,2.77881-1.59268.36884-.25357.73453-.50925,1.1526-.74185,2.57553-1.45647,6.08047-1.03523,9.78975-.58469.61089.07335,1.21756.14668,1.83473.21375,3.38287.34814,6.28309.00603,8.77754-1.00825.90034,5.11203,1.39674,10.36158,1.39674,15.72798l-.00002.00002ZM52.50016,44.40958c0,38.2974,44.40984,85.82554,44.40984,85.82554,0,0,44.40984-47.52814,44.40984-85.82554C141.31984,19.88282,121.43674,0,96.91,0s-44.40984,19.88282-44.40984,44.40958ZM96.90947,19.96665c13.4778,0,24.44384,10.96539,24.44384,24.44293s-10.96409,24.44293-24.44187,24.44293-24.44384-10.96487-24.44384-24.44293,10.96409-24.44292,24.44187-24.44293Z"/>
</svg>